<svg xmlns="http://www.w3.org/2000/svg" viewBox="0 0 64 64" width="64px" height="64px"><path fill="#f283a5" d="M48.087,44.861c-0.502,1.908-1.662,3.59-3.267,4.734c-0.052,0.037-5.257,3.726-11.813,8.027 c-0.592,0.473-1.418,0.472-2.088-0.058c-5.764-3.743-11.684-7.914-11.739-7.953c-1.607-1.145-2.769-2.827-3.271-4.735 l-5.874-22.335l1.549-4.222c0.09-0.245,0.081-0.515-0.026-0.753l-1.124-2.509l3.066-3.104c1.109-1.13,2.791-1.522,4.282-0.998 l0.854,0.303c0.378,0.135,0.801,0.03,1.071-0.267l4.51-4.929L32.03,6l7.721,0.043l4.514,4.889c0.27,0.293,0.688,0.398,1.063,0.266 l0.883-0.307c1.483-0.52,3.151-0.13,4.255,0.988l3.095,3.129l-1.126,2.524c-0.106,0.238-0.115,0.509-0.025,0.753l1.555,4.221 L48.087,44.861z"/><path fill="#fff8ee" d="M36.585,43.226c-0.482,0.347-1.189,0.9-1.613,1.262l-2.882,2.476 c-0.061,0.048-0.151,0.05-0.189,0.019l-0.67-0.583c-0.408-0.357-1.082-0.939-1.494-1.288l-0.693-0.586 c-0.424-0.375-1.146-0.938-1.641-1.281c0,0-2.463-1.679-2.426-1.565c0.006,0.019-0.02-0.014-0.058-0.066l2.579-1.153 c0.62-0.291,1.201-0.652,1.71-1.06l2.792-2.139l2.763,2.124c0.527,0.419,1.107,0.779,1.742,1.076l2.469,1.1L36.585,43.226z"/><path fill="#fff8ee" d="M48.968,23.401c-0.019,0.061-0.04,0.12-0.063,0.179c-0.311,0.353-0.763,0.833-1.054,1.134 l-5.376,5.368c-0.622,0.68-0.799,1.629-0.443,2.518l0.848,1.867c0.118,0.42,0.139,2.532,0.052,2.903l-0.176,0.451 c-0.22,0.563-0.6,1.063-1.101,1.446l-0.794,0.611c-0.173,0.118-0.405,0.144-0.557,0.089l-2.968-1.324 c-0.477-0.224-0.924-0.5-1.342-0.833L33,35.507v-1.644l4.884-3.155c0.833-0.553,1.121-1.614,0.687-2.491l-2.216-5.525l6.888-1.722 c0.536-0.134,0.862-0.677,0.728-1.213c-0.134-0.536-0.679-0.863-1.212-0.728l-8,2c-0.28,0.07-0.517,0.258-0.648,0.515 c-0.131,0.257-0.146,0.559-0.037,0.827l2.716,6.663l-4.637,2.995C32.1,32.022,32.054,32,32,32c-0.041,0-0.075,0.018-0.114,0.023 l-4.688-2.906c0.017-0.032,0.032-0.065,0.046-0.1l2.684-6.643c0.108-0.268,0.096-0.57-0.035-0.828 c-0.132-0.258-0.368-0.446-0.649-0.517l-8-2c-0.537-0.136-1.079,0.192-1.212,0.728c-0.135,0.536,0.191,1.079,0.728,1.213 l6.885,1.721l-2.236,5.535c-0.436,0.876-0.147,1.938,0.704,2.504L31,33.822v1.685l-3.026,2.319c-0.403,0.323-0.85,0.6-1.31,0.817 l-2.935,1.314c-0.2,0.078-0.435,0.052-0.563-0.032l-0.839-0.641c-0.5-0.382-0.88-0.881-1.099-1.439l-0.152-0.385 c-0.111-0.44-0.091-2.549-0.001-2.895l0.892-1.986c0.335-0.847,0.158-1.795-0.495-2.508l-5.342-5.327 c-0.294-0.294-0.73-0.77-1.04-1.116c-0.021-0.062-0.041-0.133-0.065-0.225l-0.021-0.06c0.016-0.269,0.059-0.536,0.13-0.797 c0.183-0.32,0.385-0.632,0.601-0.929l1.529-2.104c0.271-0.376,0.743-0.985,1.039-1.324l2.063-2.427 c0.06-0.075,0.122-0.149,0.186-0.221c0.123,0.022,0.264,0.047,0.412,0.074l4.502,0.806c0.043,0.008,0.087,0.013,0.131,0.015 c0.576,0.024,1.148-0.053,1.675-0.225l2.471-0.752c0.438-0.134,1.167-0.325,1.63-0.429c0.42-0.037,0.841-0.037,1.257,0 c0.472,0.1,1.199,0.295,1.626,0.425l2.448,0.742c0.547,0.18,1.121,0.256,1.695,0.231c0.045-0.002,0.09-0.007,0.134-0.015 l4.496-0.813c0.147-0.027,0.288-0.052,0.412-0.073c0.068,0.078,0.137,0.159,0.205,0.246l2.057,2.414 c0.301,0.343,0.758,0.935,1.029,1.314l1.528,2.104c0.279,0.382,0.517,0.792,0.706,1.219c0.02,0.162,0.03,0.324,0.033,0.485 L48.968,23.401z"/><path fill="#8d6c9f" d="M55.938,22.115l-1.524-4.138l0.992-2.225c0.314-0.707,0.159-1.55-0.384-2.096l-3.146-3.181 c-1.642-1.667-4.13-2.244-6.336-1.472l-0.263,0.091l-4.363-4.727c-0.188-0.204-0.452-0.32-0.729-0.322L31.964,4l-8.208,0.064 c-0.278,0.002-0.542,0.12-0.73,0.325l-4.356,4.762l-0.233-0.083c-2.224-0.781-4.726-0.2-6.373,1.481L8.86,13.791 c-0.5,0.504-0.636,1.25-0.346,1.899l1.04,2.322l-1.517,4.135c-0.07,0.192-0.08,0.401-0.028,0.598l5.954,22.64 c0.622,2.36,2.058,4.44,4.049,5.858c0.059,0.042,6.01,4.234,11.728,7.942c0.672,0.536,1.479,0.801,2.274,0.801 c0.774,0,1.538-0.251,2.154-0.746c6.511-4.266,11.746-7.977,11.8-8.015c1.986-1.417,3.421-3.496,4.041-5.856l4.855-18.565 l1.101-4.082C56.02,22.521,56.01,22.309,55.938,22.115z M48.075,44.861c-0.501,1.908-1.662,3.59-3.266,4.734 c-0.052,0.037-5.257,3.726-11.813,8.027c-0.591,0.471-1.417,0.472-2.088-0.058c-5.764-3.743-11.684-7.914-11.739-7.953 c-1.607-1.145-2.769-2.827-3.271-4.735l-5.874-22.335l1.549-4.222c0.09-0.245,0.08-0.515-0.026-0.753l-1.125-2.51l3.067-3.104 c1.108-1.131,2.791-1.522,4.281-0.998l0.855,0.303c0.379,0.135,0.801,0.029,1.072-0.268l4.509-4.929L32.019,6l7.721,0.043 l4.513,4.889c0.27,0.293,0.687,0.396,1.063,0.267l0.883-0.307c1.482-0.519,3.151-0.131,4.255,0.988l3.095,3.129l-1.126,2.524 c-0.106,0.238-0.115,0.508-0.025,0.753l1.555,4.221L48.075,44.861z"/><path fill="#8d6c9f" d="M50.861 22.167c-.257-.614-.589-1.2-.984-1.741l-1.523-2.097c-.295-.411-.798-1.063-1.139-1.451L45.189 14.5c-.214-.269-.448-.525-.695-.763-.226-.217-.59-.321-.898-.266 0 0-.419.069-.923.16l-4.424.8c-.313.012-.627-.039-.944-.143l-2.467-.748c-.496-.151-1.326-.373-1.859-.482-.034-.007-.068-.012-.102-.015-.583-.058-1.175-.057-1.757 0-.039.004-.077.01-.115.018-.509.111-1.337.328-1.845.482l-2.489.758c-.298.097-.606.141-.923.136l-4.428-.793c-.536-.096-.88-.158-1.127-.165l0-.008c-.054 0-.107.004-.16.013-.119.012-.213.044-.3.1-.084.043-.163.1-.232.166-.248.238-.482.496-.676.74l-2.033 2.392c-.327.375-.839 1.035-1.144 1.456l-1.526 2.101c-.286.394-.551.807-.786 1.229-.035.063-.063.129-.084.198-.158.523-.241 1.064-.249 1.607-.001.112.016.223.051.328l.056.159c.049.192.11.382.186.566.042.104.102.2.177.284.327.371.888.985 1.249 1.346l5.311 5.294c.104.114.133.255.097.348l-.895 1.994c-.293.761-.292 3.563-.041 4.323l.176.453c.353.902.957 1.699 1.748 2.303l.887.675c.306.207.649.34 1.008.404.01.12.029.239.068.356.121.366.378.677.715.866l2.472 1.715c.427.296 1.093.816 1.471 1.15l.71.601c.406.343 1.068.915 1.472 1.268l.694.604c.396.324.88.487 1.368.487.493 0 .988-.167 1.396-.502l2.9-2.49c.377-.323 1.041-.842 1.47-1.151l2.466-1.736c.33-.184.577-.477.703-.834.042-.119.063-.241.075-.363.362-.071.718-.202 1.044-.424l.838-.643c.791-.604 1.395-1.402 1.748-2.308l.194-.503c.232-.709.234-3.511-.081-4.323l-.86-1.902c-.053-.133-.024-.274.048-.355l5.354-5.346c.359-.37.916-.963 1.243-1.345.058-.068.107-.143.145-.224.085-.18.157-.366.208-.533l.077-.229c.033-.098.05-.2.052-.303.005-.359-.019-.721-.072-1.077C50.916 22.324 50.893 22.243 50.861 22.167zM36.585 43.226c-.483.348-1.191.901-1.612 1.262l-2.883 2.476c-.06.05-.152.049-.189.019l-.67-.583c-.409-.357-1.083-.939-1.495-1.288l-.692-.586c-.423-.375-1.145-.938-1.641-1.282l-2.402-1.667 2.497-1.117c.619-.291 1.2-.652 1.71-1.06l2.792-2.139 2.763 2.124c.526.419 1.107.779 1.742 1.076l2.469 1.1L36.585 43.226zM48.967 23.404c-.018.059-.039.118-.062.175-.31.352-.763.833-1.055 1.134l-5.375 5.368c-.622.681-.799 1.629-.444 2.518l.847 1.867c.119.42.14 2.531.052 2.903l-.176.451c-.22.563-.6 1.063-1.101 1.446l-.793.611c-.172.118-.406.145-.557.089l-2.968-1.324c-.477-.223-.923-.5-1.341-.833L33 35.507v-1.643l4.885-3.156c.833-.554 1.12-1.614.686-2.491l-2.216-5.525 6.888-1.722c.536-.134.861-.677.728-1.213-.134-.536-.678-.861-1.213-.728l-8 2c-.28.07-.517.258-.648.515s-.145.559-.038.827l2.717 6.663-4.638 2.995C32.1 32.022 32.054 32 32 32c-.041 0-.075.018-.114.023l-4.689-2.907c.017-.032.033-.065.046-.099l2.684-6.643c.108-.268.095-.57-.036-.828s-.368-.446-.648-.517l-8-2c-.534-.133-1.079.192-1.213.728-.134.536.192 1.079.728 1.213l6.885 1.721-2.236 5.536c-.435.877-.147 1.938.705 2.504L31 33.821v1.685l-3.025 2.319c-.404.323-.851.601-1.311.817l-2.934 1.314c-.203.076-.435.051-.563-.032l-.839-.641c-.5-.382-.88-.881-1.099-1.441l-.152-.383c-.111-.44-.091-2.551-.001-2.896l.891-1.985c.336-.847.159-1.796-.494-2.509l-5.342-5.327c-.293-.294-.731-.77-1.04-1.116-.02-.062-.041-.133-.065-.225l-.02-.06c.015-.269.058-.536.129-.797.182-.318.384-.63.602-.929l1.528-2.103c.273-.377.745-.987 1.04-1.325l2.063-2.427c.06-.075.122-.149.186-.221.123.022.264.047.413.074l4.502.806c.043.008.087.013.131.015.574.021 1.147-.052 1.675-.225l2.47-.752c.439-.134 1.168-.325 1.631-.429.417-.037.838-.038 1.256 0 .471.1 1.199.295 1.626.425l2.449.742c.547.179 1.118.254 1.694.231.045-.002.089-.007.133-.015l4.496-.813c.148-.027.289-.052.413-.073.068.078.137.159.206.246l2.056 2.414c.297.339.756.932 1.03 1.314l1.528 2.103c.279.383.516.792.706 1.22.02.161.031.323.034.485L48.967 23.404zM4.101 31.01c-.439 0-.841-.292-.964-.735-.146-.533.167-1.083.699-1.23l1.928-.531c.531-.148 1.083.167 1.23.699.146.533-.167 1.083-.699 1.23l-1.928.531C4.278 30.999 4.188 31.01 4.101 31.01zM5.432 35.848c-.439 0-.841-.292-.963-.735-.147-.532.166-1.083.698-1.229l1.928-.531c.531-.15 1.083.166 1.229.698s-.166 1.083-.698 1.229l-1.928.531C5.609 35.836 5.52 35.848 5.432 35.848zM6.764 40.685c-.439 0-.841-.292-.963-.735-.147-.532.166-1.083.698-1.229l1.928-.531c.531-.148 1.083.166 1.229.698S9.49 39.97 8.958 40.117L7.03 40.648C6.941 40.673 6.852 40.685 6.764 40.685zM8.095 45.521c-.439 0-.841-.292-.964-.735-.146-.533.167-1.083.699-1.23l1.928-.531c.531-.147 1.083.167 1.23.699.146.533-.167 1.083-.699 1.23l-1.928.531C8.272 45.51 8.183 45.521 8.095 45.521z"/><g><path fill="#8d6c9f" d="M54.101 42.989c-.439 0-.841.292-.964.735-.146.533.167 1.083.699 1.23l1.928.531c.531.148 1.083-.167 1.23-.699.146-.533-.167-1.083-.699-1.23l-1.928-.531C54.278 43.001 54.188 42.989 54.101 42.989zM55.432 38.152c-.439 0-.841.292-.963.735-.147.532.166 1.083.698 1.229l1.928.531c.531.15 1.083-.166 1.229-.698s-.166-1.083-.698-1.229l-1.928-.531C55.609 38.164 55.52 38.152 55.432 38.152zM56.764 33.315c-.439 0-.841.292-.963.735-.147.532.166 1.083.698 1.229l1.928.531c.531.148 1.083-.166 1.229-.698s-.166-1.083-.698-1.229l-1.928-.531C56.941 33.327 56.852 33.315 56.764 33.315zM58.095 28.478c-.439 0-.841.292-.964.735-.146.533.167 1.083.699 1.23l1.928.531c.531.147 1.083-.167 1.23-.699.146-.533-.167-1.083-.699-1.23l-1.928-.531C58.272 28.49 58.183 28.478 58.095 28.478z"/></g></svg>