<?xml version="1.0" encoding="utf-8"?>
<!-- Generator: Adobe Illustrator 23.0.3, SVG Export Plug-In . SVG Version: 6.00 Build 0)  -->
<svg version="1.1" id="Layer_1" xmlns="http://www.w3.org/2000/svg" xmlns:xlink="http://www.w3.org/1999/xlink" x="0px" y="0px"
	 viewBox="0 0 595.28 595.28" style="enable-background:new 0 0 595.28 595.28;" xml:space="preserve">
<style type="text/css">
	.st0{fill:#CF8B4C;}
	.st1{fill:#99637D;}
	.st2{fill:#B4624A;}
	.st3{fill:#B5AE64;}
	.st4{fill:#5D899D;}
	.st5{fill:#DA1C5C;}
	.st6{fill:#F7941D;}
	.st7{fill:#BE1E2D;}
	.st8{fill:#662D91;}
	.st9{fill:#1B75BC;}
	.st10{fill:#A77D52;}
	.st11{fill:#603A17;}
	.st12{fill:#544842;}
	.st13{fill:#676767;}
	.st14{fill:#754D25;}
	.st15{fill:#FBB03B;}
	.st16{fill:#3DB54A;}
	.st17{fill:#2AAAE2;}
	.st18{fill:#932A8E;}
	.st19{fill:#126554;}
	.st20{fill:#2C4D5F;}
	.st21{fill:#CE862A;}
	.st22{fill:#C83B27;}
	.st23{fill:#826D53;}
	.st24{fill:#E177AF;}
	.st25{fill:#2B97D4;}
	.st26{fill:#B28147;}
	.st27{fill:#EE8554;}
	.st28{fill:#FCD611;}
	.st29{fill:#EE292A;}
	.st30{fill:#73A643;}
	.st31{fill:#D4562A;}
	.st32{fill:#00A0D5;}
	.st33{fill:#A04D48;}
	.st34{fill:#A03E39;}
	.st35{fill:#6B9672;}
	.st36{fill:#F15B27;}
	.st37{fill:#6EC2E6;}
	.st38{fill:#0B7BA8;}
	.st39{fill:#1696CD;}
	.st40{fill:#1CB5D0;}
	.st41{fill:#004F70;}
</style>
<path class="st20" d="M412.43,419.36c-2.84-10.07-8.31-19.18-12.24-28.89c-3.93-9.7-6.28-20.75-2.63-30.56
	c0.95-2.56,2.24-5.64,0.55-7.79c-2.72-3.45-7.83,0.36-11.69,2.46c-6.71,3.64-15.6,0.75-20.57-5.05c-4.97-5.8-6.66-13.76-6.84-21.4
	c-0.18-7.42,0.98-15.1,4.95-21.36c3.98-6.26,11.2-10.81,18.58-10.09c3.12-22.04-4.7-45.36-20.48-61.06
	c-11.37-11.31-26.11-18.45-39.4-27.43c-3.39-2.29-6.72-4.79-9.88-7.49h-1.1l-2.03-84.73h6.21c1.92,0,3.48,1.56,3.48,3.48v0.04h3.29
	c2.25,0,4.08-1.83,4.08-4.08v-3.73c0-2.25-1.83-4.08-4.08-4.08h-3.29v0.04c0,1.92-1.56,3.48-3.48,3.48h-6.33l-0.24-10.07h6.57
	c1.92,0,3.48,1.56,3.48,3.48v0.04h3.29c2.25,0,4.08-1.83,4.08-4.08v-3.73c0-2.25-1.83-4.08-4.08-4.08h-3.29v0.04
	c0,1.92-1.56,3.48-3.48,3.48h-6.69l-0.24-10.07h6.93c1.92,0,3.48,1.56,3.48,3.48v0.04h3.29c2.25,0,4.08-1.83,4.08-4.08v-3.73
	c0-2.25-1.83-4.08-4.08-4.08h-3.29v0.04c0,1.92-1.56,3.48-3.48,3.48h-6.44c3.03-5.36,8.08-9.61,14.07-11.09
	c0.42-6.31-6.24-12.04-12.42-10.68c0.49-4.33-0.93-8.85-3.82-12.11c-2.56-2.89-6.23-4.75-10.06-5.17c0-0.03,0-0.06,0-0.09
	c-0.25,0-0.5,0.03-0.75,0.05c-0.25-0.01-0.5-0.05-0.75-0.05c0,0.03,0,0.06,0,0.09c-3.83,0.42-7.5,2.28-10.06,5.17
	c-2.89,3.27-4.31,7.78-3.82,12.11c-6.18-1.36-12.84,4.36-12.42,10.68c8.6,2.13,15.26,9.94,16.78,18.58l-0.04,1.78h-6.76
	c-1.92,0-3.48-1.56-3.48-3.48v-0.04h-3.29c-2.25,0-4.08,1.83-4.08,4.08v3.73c0,2.25,1.83,4.08,4.08,4.08h3.29V98.9
	c0-1.92,1.56-3.48,3.48-3.48h6.64l-0.24,10.07h-6.4c-1.92,0-3.48-1.56-3.48-3.48v-0.04h-3.29c-2.25,0-4.08,1.83-4.08,4.08v3.73
	c0,2.25,1.83,4.08,4.08,4.08h3.29v-0.04c0-1.92,1.56-3.48,3.48-3.48h6.28l-2.17,90.37h-1.03c-3.16,2.7-6.49,5.2-9.88,7.49
	c-13.29,8.97-28.03,16.12-39.4,27.43c-15.78,15.7-23.61,39.02-20.48,61.06c7.38-0.71,14.6,3.83,18.58,10.09
	c3.98,6.26,5.14,13.95,4.95,21.36c-0.19,7.64-1.88,15.59-6.84,21.4c-4.97,5.8-13.86,8.7-20.57,5.05c-3.86-2.1-8.97-5.91-11.69-2.46
	c-1.69,2.15-0.41,5.23,0.55,7.79c3.65,9.81,1.3,20.86-2.63,30.56c-3.93,9.7-9.39,18.81-12.24,28.89
	c-5.86,20.77,0.42,43.81,13.52,60.97c13.09,17.16,32.31,28.88,52.64,36.15c12.88,4.61,26.35,7.55,39.97,8.78
	c-0.65,5.67-1.57,11.32-2.51,16.95c4.43,2.13,8.21,5.56,10.8,9.73c0.01,0.4,0.02,0.8,0.03,1.2c0.11-0.19,0.23-0.38,0.34-0.57
	c0.11,0.19,0.24,0.38,0.34,0.57c0.01-0.4,0.02-0.8,0.03-1.2c2.6-4.17,6.37-7.6,10.8-9.73c-0.93-5.63-1.86-11.28-2.51-16.95
	c13.62-1.23,27.09-4.17,39.97-8.78c20.32-7.27,39.54-18.99,52.64-36.15C412.01,463.17,418.29,440.13,412.43,419.36z M390.46,360.88
	c-3.64,5.82-4.41,13.11-3.2,19.87c1.21,6.76,4.25,13.05,7.78,18.94c-8.8-1.17-16.33-8.8-17.37-17.62
	C376.63,373.24,382.17,364.07,390.46,360.88z M350.73,332.07c-13.21-5.7-23.55-16.95-29.93-29.84c-6.38-12.89-9.06-27.35-9.76-41.72
	c2.65,10.77,9.1,20.57,17.93,27.27c8.84,6.7,20.01,10.26,31.1,9.9C352.67,307.35,349.24,319.98,350.73,332.07z M346.08,438.96
	c-0.69-0.83-1.41-1.63-2.15-2.4c-3.94-4.03-8.56-7.4-12.16-11.74c-2.7-3.26-4.75-7.04-6.06-11.07c0.56-3.05,1.43-6.04,2.62-8.9
	c1.45-3.47,3.9-7.14,7.64-7.52c3.64-0.37,6.87,2.75,8,6.23c1.13,3.48,0.71,7.24,0.46,10.89
	C343.88,422.64,344.33,430.96,346.08,438.96z M271.56,383.74c-3.58,0-6.49-2.91-6.49-6.49v-0.13c0-3.58,2.91-6.49,6.49-6.49h52.16
	c3.58,0,6.49,2.91,6.49,6.49v0.13c0,3.58-2.91,6.49-6.49,6.49H271.56z M316.71,389.3v54.68c0,1.18-1.36,2.13-3.05,2.13h-0.06
	c-1.68,0-3.05-0.95-3.05-2.13V389.3H316.71z M306.07,389.3v54.68c0,1.18-1.36,2.13-3.05,2.13h-0.06c-1.68,0-3.05-0.95-3.05-2.13
	V389.3H306.07z M295.43,389.3v54.68c0,1.18-1.36,2.13-3.05,2.13h-0.06c-1.68,0-3.05-0.95-3.05-2.13V389.3H295.43z M284.8,389.3
	v54.68c0,1.18-1.36,2.13-3.05,2.13h-0.06c-1.68,0-3.05-0.95-3.05-2.13V389.3H284.8z M250.84,414.45c-0.25-3.65-0.67-7.41,0.46-10.89
	c1.13-3.48,4.36-6.6,8-6.23c3.74,0.38,6.2,4.05,7.64,7.52c1.19,2.86,2.06,5.85,2.62,8.9c-1.31,4.03-3.36,7.81-6.06,11.07
	c-3.6,4.34-8.22,7.7-12.16,11.74c-0.74,0.76-1.47,1.56-2.15,2.4C250.94,430.96,251.39,422.64,250.84,414.45z M289.27,364.45v-61.64
	c0-1.18,1.36-2.13,3.05-2.13h0.06c1.68,0,3.05,0.95,3.05,2.13v61.64c0,1.18-1.36,2.13-3.05,2.13h-0.06
	C290.64,366.58,289.27,365.63,289.27,364.45z M299.91,364.45v-61.64c0-1.18,1.36-2.13,3.05-2.13h0.06c1.68,0,3.05,0.95,3.05,2.13
	v61.64c0,1.18-1.36,2.13-3.05,2.13h-0.06C301.28,366.58,299.91,365.63,299.91,364.45z M374.49,285.55
	c-0.14,1.72-0.45,3.57-1.71,4.76c-1.43,1.34-3.6,1.39-5.56,1.28c-18.78-1.05-37.89-10.36-46.8-26.92
	c-2.65-4.93-4.31-10.27-5.46-15.75c17.16,12.87,37.49,22.48,58.78,23.08C374.61,276.45,374.87,281.02,374.49,285.55z M368.9,258.29
	c-6.69,1.19-13.56,1.26-20.29,0.31c-1.32-1.24-2.55-2.61-3.69-4c-7.66-9.32-12.91-20.59-15.22-32.42c4.04,2.82,8.14,5.56,12.14,8.41
	C352.46,238.13,362.8,246.79,368.9,258.29z M322.44,216.94c1.35,10.88,4.88,21.49,10.33,31c1.75,3.05,3.73,6.01,6.14,8.55
	c-9.24-2.74-17.89-7.44-25.06-13.86c-0.4-2.68-0.72-5.38-1.02-8.06c-1.03-9.31-1.83-18.65-2.39-28
	C314.15,210.36,318.21,213.75,322.44,216.94z M310.55,309.4c0-1.18,1.36-2.13,3.05-2.13h0.06c1.68,0,3.05,0.95,3.05,2.13v55.05
	c0,1.18-1.36,2.13-3.05,2.13h-0.06c-1.68,0-3.05-0.95-3.05-2.13V309.4z M304.74,291.97h-14.2v-27.08h1.59c2.8,0,5.06-2.27,5.06-5.06
	v-0.1c0-2.8-2.27-5.06-5.06-5.06h-1.59v-30.11h1.59c2.8,0,5.06-2.27,5.06-5.06v-0.1c0-2.8-2.27-5.06-5.06-5.06h-1.59v-30.11h1.59
	c2.8,0,5.06-2.27,5.06-5.06v-0.1c0-2.8-2.27-5.06-5.06-5.06h-1.59v-53.59h3.83v24.22c0,1.79,1.45,3.23,3.23,3.23h0.07
	c1.79,0,3.23-1.45,3.23-3.23v-24.22h3.83V291.97z M297,48.45c3.84,0,6.96,3.12,6.96,6.96c0,3.84-6.96,29.7-6.96,29.7
	s-6.96-25.85-6.96-29.7C290.04,51.57,293.15,48.45,297,48.45z M284.8,309.4v55.05c0,1.18-1.36,2.13-3.05,2.13h-0.06
	c-1.68,0-3.05-0.95-3.05-2.13V309.4c0-1.18,1.36-2.13,3.05-2.13h0.06C283.43,307.27,284.8,308.22,284.8,309.4z M284.83,206.56
	c-0.56,9.35-1.36,18.69-2.39,28c-0.3,2.68-0.62,5.38-1.02,8.06c-7.17,6.41-15.82,11.12-25.06,13.86c2.41-2.54,4.39-5.5,6.14-8.55
	c5.45-9.51,8.98-20.12,10.33-31C277.06,213.75,281.13,210.36,284.83,206.56z M253.43,230.59c4.01-2.85,8.1-5.59,12.14-8.41
	c-2.31,11.84-7.56,23.1-15.22,32.42c-1.14,1.39-2.37,2.76-3.69,4c-6.73,0.95-13.6,0.88-20.29-0.31
	C232.48,246.79,242.81,238.13,253.43,230.59z M228.05,291.58c-1.95,0.11-4.13,0.06-5.56-1.28c-1.26-1.18-1.56-3.04-1.71-4.76
	c-0.38-4.53-0.12-9.1,0.75-13.56c21.29-0.6,41.62-10.21,58.78-23.08c-1.15,5.49-2.81,10.83-5.46,15.75
	C265.94,281.23,246.83,290.53,228.05,291.58z M235.2,297.67c11.09,0.36,22.26-3.2,31.1-9.9c8.84-6.7,15.28-16.5,17.93-27.27
	c-0.71,14.37-3.38,28.83-9.76,41.72c-6.38,12.89-16.72,24.14-29.93,29.84C246.03,319.98,242.6,307.35,235.2,297.67z M205.27,360.88
	c8.29,3.19,13.83,12.37,12.79,21.18c-1.04,8.82-8.57,16.45-17.37,17.62c3.53-5.89,6.57-12.18,7.78-18.94
	C209.68,373.99,208.91,366.7,205.27,360.88z M199.86,445.18c0.93-3.06,3.14-5.9,6.23-6.76c3.16-0.87,6.83,0.72,8.35,3.63
	c1.52,2.91,0.74,6.83-1.79,8.93c2.78,1.11,6.03,0.53,8.59-1.02c2.56-1.55,4.49-3.96,6-6.54c4.98-8.52,5.72-18.83,5.44-28.7
	c-0.28-9.86-1.43-19.81,0.22-29.54c0.56-3.27,1.45-6.52,3.15-9.37c1.7-2.84,4.29-5.25,7.45-6.24c3.16-0.99,6.9-0.37,9.25,1.97
	c2.35,2.34,2.91,6.43,0.89,9.06c-2.02,2.63-6.54,2.98-8.64,0.41c-2.96,2.22-3.01,6.56-2.77,10.24c0.45,7.21,0.91,14.42,1.36,21.63
	c0.51,8.1,1.02,16.27-0.24,24.29s-4.45,15.97-10.34,21.55c-5.89,5.58-14.77,8.37-22.43,5.71
	C202.92,461.75,197.5,452.94,199.86,445.18z M214.47,481.14c12.95-4.28,23.42-14.6,29.44-26.84c0.74-1.5,1.41-3.03,2.03-4.59
	c6.05-4.99,11.68-10.47,16.82-16.4c2.82-3.25,5.51-6.7,7.54-10.48c-0.11,5.3-1.14,10.57-3.11,15.49c-1.61,4.02-3.83,7.86-5.3,11.91
	c-4.25,5.58-8.11,11.45-11.27,17.71c-4.72,9.33-7.9,19.53-8.48,29.97c-0.08,1.46-0.07,3.02,0.29,4.43
	C231.96,496.97,222.43,489.8,214.47,481.14z M251.22,480.38c2.14-7.1,5.46-13.76,9.18-20.2c0.01,0.18,0.02,0.36,0.04,0.54v48.81
	c-3.54-1.03-7.03-2.26-10.44-3.67C247.95,497.57,248.74,488.61,251.22,480.38z M278.15,512.98c-3.76-0.38-7.49-0.97-11.17-1.78
	V477.4c3.19,5.17,6.84,10.07,9.41,15.57C279.32,499.21,280.76,506.6,278.15,512.98z M305.44,510.36c-0.03,2.92,0.11,5.84,0.32,8.75
	h-16.25c0.21-2.91,0.36-5.83,0.32-8.75c-0.12-10.68-2.23-21.56-7.71-30.73c-2.67-4.47-6.1-8.47-8.45-13.11
	c-2.27-4.49-3.42-9.92-1.54-14.56h50.99c1.88,4.64,0.74,10.07-1.54,14.56c-2.35,4.64-5.78,8.65-8.45,13.11
	C307.67,488.8,305.56,499.67,305.44,510.36z M318.88,492.97c2.58-5.49,6.22-10.4,9.41-15.57v33.79c-3.69,0.81-7.42,1.4-11.17,1.78
	C314.51,506.6,315.96,499.21,318.88,492.97z M345.27,505.86c-3.41,1.41-6.9,2.64-10.44,3.67v-48.81c0.02-0.18,0.03-0.36,0.04-0.54
	c3.72,6.44,7.04,13.1,9.18,20.2C346.54,488.61,347.32,497.57,345.27,505.86z M352.85,502.35c0.35-1.41,0.37-2.96,0.29-4.43
	c-0.58-10.44-3.76-20.64-8.48-29.97c-3.16-6.26-7.01-12.13-11.27-17.71c-1.47-4.05-3.69-7.89-5.3-11.91
	c-1.97-4.92-3-10.2-3.11-15.49c2.02,3.78,4.72,7.22,7.54,10.48c5.14,5.92,10.77,11.41,16.82,16.4c0.62,1.55,1.29,3.08,2.03,4.59
	c6.02,12.24,16.5,22.56,29.44,26.84C372.85,489.8,363.31,496.97,352.85,502.35z M384.69,464.42c-7.66,2.67-16.54-0.12-22.43-5.71
	c-5.89-5.58-9.08-13.54-10.34-21.55s-0.75-16.19-0.24-24.29c0.45-7.21,0.91-14.42,1.36-21.63c0.23-3.69,0.18-8.03-2.77-10.24
	c-2.1,2.56-6.62,2.21-8.64-0.41c-2.02-2.63-1.46-6.72,0.89-9.06c2.35-2.34,6.09-2.96,9.25-1.97c3.16,0.99,5.75,3.4,7.45,6.24
	c1.7,2.84,2.59,6.1,3.15,9.37c1.66,9.73,0.5,19.68,0.22,29.54c-0.28,9.86,0.46,20.18,5.44,28.7c1.51,2.58,3.44,4.99,6,6.54
	c2.56,1.55,5.81,2.13,8.59,1.02c-2.52-2.1-3.31-6.02-1.79-8.93c1.52-2.91,5.19-4.5,8.35-3.63c3.08,0.85,5.3,3.7,6.23,6.76
	C397.77,452.94,392.36,461.75,384.69,464.42z"/>
</svg>
